<svg width="32" height="36" viewBox="0 0 32 36" fill="none" xmlns="http://www.w3.org/2000/svg">
<path d="M9.60286 35.7655C8.7226 35.7655 7.96931 35.4156 7.34299 34.7158C6.7156 34.0148 6.40191 33.1725 6.40191 32.1889C6.40191 31.2054 6.7156 30.3631 7.34299 29.6621C7.96931 28.9623 8.7226 28.6124 9.60286 28.6124C10.4831 28.6124 11.2364 28.9623 11.8627 29.6621C12.4901 30.3631 12.8038 31.2054 12.8038 32.1889C12.8038 33.1725 12.4901 34.0148 11.8627 34.7158C11.2364 35.4156 10.4831 35.7655 9.60286 35.7655ZM25.6076 35.7655C24.7274 35.7655 23.9741 35.4156 23.3477 34.7158C22.7204 34.0148 22.4067 33.1725 22.4067 32.1889C22.4067 31.2054 22.7204 30.3631 23.3477 29.6621C23.9741 28.9623 24.7274 28.6124 25.6076 28.6124C26.4879 28.6124 27.2417 28.9623 27.8691 29.6621C28.4954 30.3631 28.8086 31.2054 28.8086 32.1889C28.8086 33.1725 28.4954 34.0148 27.8691 34.7158C27.2417 35.4156 26.4879 35.7655 25.6076 35.7655ZM8.24245 7.1531L12.0836 16.0945H23.2869L27.6882 7.1531H8.24245ZM9.60286 26.8241C8.4025 26.8241 7.49556 26.2352 6.88205 25.0573C6.26853 23.8806 6.24186 22.7111 6.80202 21.5487L8.96267 17.1674L3.20095 3.57655H1.56046C1.107 3.57655 0.733552 3.40488 0.440131 3.06153C0.14671 2.71937 0 2.29495 0 1.78827C0 1.2816 0.153646 0.856584 0.460937 0.513235C0.767162 0.171078 1.14701 0 1.60048 0H4.20125C4.49467 0 4.77475 0.0894139 5.0415 0.268241C5.30825 0.447069 5.50831 0.700408 5.64168 1.02826L6.722 3.57655H30.329C31.0492 3.57655 31.5427 3.8746 31.8095 4.47069C32.0762 5.06678 32.0629 5.69268 31.7695 6.34838L26.0878 17.7933C25.7943 18.3894 25.4076 18.8514 24.9274 19.1792C24.4473 19.5071 23.9004 19.671 23.2869 19.671H11.3634L9.60286 23.2476H27.2481C27.7016 23.2476 28.075 23.4186 28.3684 23.7608C28.6619 24.1042 28.8086 24.5292 28.8086 25.0358C28.8086 25.5425 28.6549 25.9669 28.3476 26.3091C28.0414 26.6524 27.6616 26.8241 27.2081 26.8241H9.60286Z" fill="black"/>
</svg>
